<svg xmlns="http://www.w3.org/2000/svg" width="13.787" height="18.1" viewBox="0 0 13.787 18.1">
  <g id="google-docs" transform="translate(-61)">
    <path id="Path_1117" data-name="Path 1117" d="M74.632,4.4,70.39.155A.531.531,0,0,0,70.015,0H62.591A1.593,1.593,0,0,0,61,1.591V16.509A1.593,1.593,0,0,0,62.591,18.1H73.2a1.593,1.593,0,0,0,1.591-1.591V4.772A.535.535,0,0,0,74.632,4.4ZM70.545,1.81l2.432,2.432h-1.9a.531.531,0,0,1-.53-.53ZM73.2,17.039H62.591a.531.531,0,0,1-.53-.53V1.591a.531.531,0,0,1,.53-.53h6.894V3.712A1.593,1.593,0,0,0,71.075,5.3h2.651V16.509A.531.531,0,0,1,73.2,17.039Z" transform="translate(0 0)" fill="#434343"/>
    <path id="Path_1118" data-name="Path 1118" d="M157.894,212H151.53a.53.53,0,0,0,0,1.061h6.363a.53.53,0,0,0,0-1.061Z" transform="translate(-86.818 -204.505)" fill="#434343"/>
    <path id="Path_1119" data-name="Path 1119" d="M157.894,272H151.53a.53.53,0,0,0,0,1.061h6.363a.53.53,0,0,0,0-1.061Z" transform="translate(-86.818 -262.384)" fill="#434343"/>
    <path id="Path_1120" data-name="Path 1120" d="M157.894,332H151.53a.53.53,0,0,0,0,1.061h6.363a.53.53,0,0,0,0-1.061Z" transform="translate(-86.818 -320.263)" fill="#434343"/>
    <path id="Path_1121" data-name="Path 1121" d="M155.772,392H151.53a.53.53,0,0,0,0,1.061h4.242a.53.53,0,0,0,0-1.061Z" transform="translate(-86.818 -378.142)" fill="#434343"/>
  </g>
</svg>
