<svg xmlns="http://www.w3.org/2000/svg" width="16.319" height="18.1" viewBox="0 0 16.319 18.1">
  <g id="writing" transform="translate(-26.57)">
    <g id="Group_11" data-name="Group 11" transform="translate(26.57)">
      <g id="Group_10" data-name="Group 10">
        <path id="Path_1109" data-name="Path 1109" d="M115.208,200.711A.711.711,0,0,0,114.5,200H107.17a.711.711,0,1,0,0,1.423H114.5A.711.711,0,0,0,115.208,200.711Z" transform="translate(-103.618 -192.933)" fill="#434343"/>
        <path id="Path_1110" data-name="Path 1110" d="M107.17,280a.711.711,0,1,0,0,1.423h4.45a.711.711,0,1,0,0-1.423Z" transform="translate(-103.618 -270.107)" fill="#434343"/>
        <path id="Path_1111" data-name="Path 1111" d="M31.794,16.686H29.415a1.42,1.42,0,0,1-1.423-1.414V2.828a1.42,1.42,0,0,1,1.423-1.414H38.16a1.42,1.42,0,0,1,1.423,1.414V7.176a.711.711,0,0,0,1.423,0V2.828A2.84,2.84,0,0,0,38.16,0H29.415A2.84,2.84,0,0,0,26.57,2.828V15.272A2.84,2.84,0,0,0,29.415,18.1h2.379a.707.707,0,1,0,0-1.414Z" transform="translate(-26.57)" fill="#434343"/>
        <path id="Path_1112" data-name="Path 1112" d="M251.439,272.648a2.136,2.136,0,0,0-3.017,0l-3.905,3.9a.712.712,0,0,0-.178.3l-.85,2.8a.711.711,0,0,0,.87.892l2.871-.8a.711.711,0,0,0,.313-.182l3.9-3.89A2.136,2.136,0,0,0,251.439,272.648Zm-4.769,5.768-1.444.4.423-1.392,2.635-2.629,1.006,1.006Zm3.764-3.757-.138.138-1.006-1.006.137-.137a.711.711,0,0,1,1.006,1.005Z" transform="translate(-235.744 -262.459)" fill="#434343"/>
        <path id="Path_1113" data-name="Path 1113" d="M114.5,120H107.17a.711.711,0,1,0,0,1.423H114.5a.711.711,0,0,0,0-1.423Z" transform="translate(-103.618 -115.76)" fill="#434343"/>
      </g>
    </g>
  </g>
</svg>
