<svg xmlns="http://www.w3.org/2000/svg" width="27.429" height="36.571" viewBox="0 0 27.429 36.571">
  <g id="Group_940" data-name="Group 940" transform="translate(-20.571 -820)">
    <g id="pdf" transform="translate(-16 820)">
      <path id="Path_1176" data-name="Path 1176" d="M98.286,0A2.292,2.292,0,0,0,96,2.286v32a2.292,2.292,0,0,0,2.286,2.286h22.857a2.292,2.292,0,0,0,2.286-2.286V9.143L114.286,0Z" transform="translate(-59.429)" fill="#e2e5e7"/>
      <path id="Path_1177" data-name="Path 1177" d="M354.286,9.143h6.857L352,0V6.857A2.292,2.292,0,0,0,354.286,9.143Z" transform="translate(-297.143)" fill="#b0b7bd"/>
      <path id="Path_1178" data-name="Path 1178" d="M390.857,134.857,384,128h6.857Z" transform="translate(-326.857 -118.857)" fill="#cad1d8"/>
    </g>
    <path id="Path_1196" data-name="Path 1196" d="M1647.411,1715.682H1662.8" transform="translate(-1621.239 -880)" fill="none" stroke="#fff" stroke-linecap="round" stroke-width="3"/>
    <path id="Path_1197" data-name="Path 1197" d="M1647.411,1715.682H1662.8" transform="translate(-1621.239 -874)" fill="none" stroke="#fff" stroke-linecap="round" stroke-width="3"/>
    <path id="Path_1198" data-name="Path 1198" d="M1647.411,1715.682h11.2" transform="translate(-1621.239 -868)" fill="none" stroke="#fff" stroke-linecap="round" stroke-width="3"/>
  </g>
</svg>
