<svg id="list" xmlns="http://www.w3.org/2000/svg" width="18.101" height="18.101" viewBox="0 0 18.101 18.101">
  <g id="Group_948" data-name="Group 948">
    <g id="Group_947" data-name="Group 947">
      <path id="Path_1203" data-name="Path 1203" d="M14.141,0H3.96A3.959,3.959,0,0,0,0,3.96V14.141A3.959,3.959,0,0,0,3.96,18.1H14.141a3.959,3.959,0,0,0,3.96-3.96V3.96A3.959,3.959,0,0,0,14.141,0Zm2.828,14.141a2.828,2.828,0,0,1-2.828,2.828H3.96a2.828,2.828,0,0,1-2.828-2.828V3.96A2.828,2.828,0,0,1,3.96,1.131H14.141A2.828,2.828,0,0,1,16.969,3.96Z" fill="#434343"/>
      <path id="Path_1204" data-name="Path 1204" d="M113.7,112h-1.131a.566.566,0,0,0-.566.566V113.7a.566.566,0,0,0,.566.566H113.7a.566.566,0,0,0,.566-.566v-1.131A.566.566,0,0,0,113.7,112Z" transform="translate(-108.041 -108.041)" fill="#434343"/>
      <path id="Path_1205" data-name="Path 1205" d="M113.7,224h-1.131a.566.566,0,0,0-.566.566V225.7a.566.566,0,0,0,.566.566H113.7a.566.566,0,0,0,.566-.566v-1.131A.566.566,0,0,0,113.7,224Z" transform="translate(-108.041 -216.081)" fill="#434343"/>
      <path id="Path_1206" data-name="Path 1206" d="M113.7,336h-1.131a.566.566,0,0,0-.566.566V337.7a.566.566,0,0,0,.566.566H113.7a.566.566,0,0,0,.566-.566v-1.131A.566.566,0,0,0,113.7,336Z" transform="translate(-108.041 -324.121)" fill="#434343"/>
      <rect id="Rectangle_73" data-name="Rectangle 73" width="7" height="1" transform="translate(7 5)" fill="#434343"/>
      <rect id="Rectangle_74" data-name="Rectangle 74" width="7" height="1" transform="translate(7 8)" fill="#434343"/>
      <rect id="Rectangle_75" data-name="Rectangle 75" width="7" height="1" transform="translate(7 13)" fill="#434343"/>
    </g>
  </g>
</svg>
