<svg xmlns="http://www.w3.org/2000/svg" width="19.122" height="18.1" viewBox="0 0 19.122 18.1">
  <g id="speech-bubble-with-text-lines" transform="translate(0 -7.23)">
    <g id="Group_12" data-name="Group 12" transform="translate(0 7.23)">
      <path id="Path_1114" data-name="Path 1114" d="M15.77,7.23H3.353A3.334,3.334,0,0,0,0,10.538v7.556A3.334,3.334,0,0,0,3.353,21.4h7.909l3.786,3.735a.677.677,0,0,0,.731.143.661.661,0,0,0,.414-.611V21.375a3.328,3.328,0,0,0,2.93-3.281V10.538A3.334,3.334,0,0,0,15.77,7.23Zm2.012,10.864a2,2,0,0,1-2.012,1.985h-.248a.666.666,0,0,0-.671.662v2.332l-2.838-2.8a.675.675,0,0,0-.474-.194H3.353a2,2,0,0,1-2.012-1.985V10.538A2,2,0,0,1,3.353,8.553H15.77a2,2,0,0,1,2.012,1.985Z" transform="translate(0 -7.23)" fill="#434343"/>
      <path id="Path_1115" data-name="Path 1115" d="M84.283,95.743h-9.87a.671.671,0,0,0,0,1.341h9.87a.671.671,0,0,0,0-1.341Z" transform="translate(-69.786 -91.064)" fill="#434343"/>
      <path id="Path_1116" data-name="Path 1116" d="M84.283,165.743h-9.87a.671.671,0,0,0,0,1.341h9.87a.671.671,0,0,0,0-1.341Z" transform="translate(-69.786 -157.363)" fill="#434343"/>
    </g>
  </g>
</svg>
