<svg xmlns="http://www.w3.org/2000/svg" width="23.241" height="24.533" viewBox="0 0 23.241 24.533">
  <g id="Group_1001" data-name="Group 1001" transform="translate(-247.015 -197.621)">
    <path id="Subtraction_1" data-name="Subtraction 1" d="M9.345,22.428A3.246,3.246,0,0,1,6.4,20.559h5.885A3.285,3.285,0,0,1,9.345,22.428Zm3.336-2.8H.466a.468.468,0,0,1-.4-.708l1.6-2.674A7.954,7.954,0,0,0,2.8,12.155V9.812c0-.022,0-.044,0-.066l9.876,9.876Zm5.948-.692L4.806,5.108a6.579,6.579,0,0,1,2.67-1.562V1.869a1.869,1.869,0,1,1,3.738,0V3.546a6.608,6.608,0,0,1,3.348,2.326,6.471,6.471,0,0,1,1.324,3.94v2.343a7.949,7.949,0,0,0,1.133,4.088l1.6,2.674.008.014Z" transform="translate(249.345 197.621)" fill="#fff"/>
    <rect id="Rectangle_143" data-name="Rectangle 143" width="2.348" height="30.52" rx="1.174" transform="translate(247.015 200.573) rotate(-45)" fill="#fff"/>
  </g>
</svg>
