<svg xmlns="http://www.w3.org/2000/svg" width="18.39" height="18.1" viewBox="0 0 18.39 18.1">
  <path id="search_1_" data-name="search (1)" d="M16.154,2.548a7.722,7.722,0,0,0-10.816,0,7.483,7.483,0,0,0-1.281,9l-3.45,3.4a2.028,2.028,0,0,0,0,2.892,2.092,2.092,0,0,0,2.931,0L6.972,14.45a7.739,7.739,0,0,0,9.181-1.232A7.482,7.482,0,0,0,16.154,2.548ZM14.8,11.883a5.789,5.789,0,0,1-8.108,0,5.609,5.609,0,0,1,0-8,5.789,5.789,0,0,1,8.108,0A5.609,5.609,0,0,1,14.8,11.883Z" transform="translate(0 -0.338)" fill="#434343"/>
</svg>
