<svg xmlns="http://www.w3.org/2000/svg" width="20.079" height="24.712" viewBox="0 0 20.079 24.712">
  <g id="trash" transform="translate(-48)">
    <path id="Path_1171" data-name="Path 1171" d="M66.148,3.089H61.9V2.317A2.317,2.317,0,0,0,59.584,0H56.495a2.317,2.317,0,0,0-2.317,2.317v.772H49.931A1.931,1.931,0,0,0,48,5.02V6.564a.772.772,0,0,0,.772.772H67.307a.772.772,0,0,0,.772-.772V5.02A1.931,1.931,0,0,0,66.148,3.089ZM55.723,2.317a.773.773,0,0,1,.772-.772h3.089a.773.773,0,0,1,.772.772v.772H55.723Z" fill="#fff"/>
    <path id="Path_1172" data-name="Path 1172" d="M73.606,184a.241.241,0,0,0-.241.253L74,197.625a2.314,2.314,0,0,0,2.314,2.207H88.043a2.314,2.314,0,0,0,2.314-2.207l.637-13.372a.241.241,0,0,0-.241-.253Zm11.663,1.931a.772.772,0,1,1,1.545,0V195.97a.772.772,0,1,1-1.545,0Zm-3.861,0a.772.772,0,0,1,1.545,0V195.97a.772.772,0,1,1-1.545,0Zm-3.861,0a.772.772,0,0,1,1.545,0V195.97a.772.772,0,1,1-1.545,0Z" transform="translate(-24.14 -175.119)" fill="#fff"/>
  </g>
</svg>
